<svg width="306" height="291" viewBox="0 0 306 291" fill="none" xmlns="http://www.w3.org/2000/svg">
<ellipse cx="153" cy="145.5" rx="153" ry="145.5" fill="#000E08"/>
<path d="M70.8 156H56.88V127.44H52.08V156H38.16V127.44H33.36V156H19.44V125.76C19.44 125.408 19.744 125.12 20.352 124.896C20.96 124.672 21.68 124.512 22.512 124.416C23.344 124.288 24.128 124.208 24.864 124.176C25.6 124.112 26.112 124.08 26.4 124.08H45.12C45.376 124.08 45.84 124.096 46.512 124.128C47.216 124.16 47.968 124.24 48.768 124.368C49.568 124.464 50.272 124.608 50.88 124.8C51.52 124.992 51.904 125.232 52.032 125.52C52.192 125.232 52.56 124.992 53.136 124.8C53.744 124.608 54.432 124.464 55.2 124.368C56 124.24 56.736 124.16 57.408 124.128C58.112 124.096 58.624 124.08 58.944 124.08H63.84C64.128 124.08 64.64 124.112 65.376 124.176C66.112 124.208 66.896 124.288 67.728 124.416C68.56 124.512 69.28 124.672 69.888 124.896C70.496 125.12 70.8 125.408 70.8 125.76V156ZM73.6744 132H87.1144V152.736H90.9544V132H104.394V162.288C104.394 162.608 104.106 162.88 103.53 163.104C102.954 163.328 102.25 163.488 101.418 163.584C100.618 163.712 99.8504 163.792 99.1144 163.824C98.4104 163.888 97.9304 163.92 97.6744 163.92H73.7704V160.656H90.9544V154.656C90.7624 154.944 90.3624 155.184 89.7544 155.376C89.1784 155.536 88.5224 155.664 87.7864 155.76C87.0824 155.856 86.3944 155.92 85.7224 155.952C85.0824 155.984 84.6184 156 84.3304 156H80.3944C80.1384 156 79.6424 155.984 78.9064 155.952C78.2024 155.888 77.4344 155.808 76.6024 155.712C75.8024 155.584 75.1144 155.408 74.5384 155.184C73.9624 154.96 73.6744 154.688 73.6744 154.368V132ZM133.673 156H119.753V125.76C119.753 125.408 120.057 125.12 120.665 124.896C121.273 124.672 121.993 124.512 122.825 124.416C123.657 124.288 124.441 124.208 125.177 124.176C125.913 124.112 126.425 124.08 126.713 124.08H144.617C145.289 124.08 146.153 124.112 147.209 124.176C148.265 124.24 149.305 124.4 150.329 124.656C151.353 124.912 152.217 125.328 152.921 125.904C153.625 126.448 153.977 127.2 153.977 128.16V156H140.057V137.424C140.057 137.136 140.057 136.64 140.057 135.936C140.089 135.232 140.105 134.432 140.105 133.536C140.105 132.64 140.105 131.76 140.105 130.896C140.105 130 140.089 129.248 140.057 128.64C140.057 128 140.025 127.6 139.961 127.44H133.673V156ZM180.878 156H163.598C163.342 156 162.846 155.984 162.11 155.952C161.406 155.888 160.638 155.808 159.806 155.712C159.006 155.584 158.317 155.408 157.742 155.184C157.166 154.96 156.878 154.688 156.878 154.368V133.632C156.878 133.28 157.166 133.008 157.742 132.816C158.317 132.592 159.006 132.432 159.806 132.336C160.638 132.208 161.406 132.128 162.11 132.096C162.846 132.032 163.342 132 163.598 132H180.878C181.134 132 181.614 132.032 182.318 132.096C183.054 132.128 183.822 132.208 184.622 132.336C185.454 132.432 186.158 132.592 186.734 132.816C187.31 133.008 187.598 133.28 187.598 133.632V154.368C187.598 154.688 187.31 154.96 186.734 155.184C186.158 155.408 185.454 155.584 184.622 155.712C183.822 155.808 183.054 155.888 182.318 155.952C181.614 155.984 181.134 156 180.878 156ZM170.318 152.736H174.158V135.264H170.318V152.736ZM190.487 136.224V132.96H194.807V126.24H207.287V132.96H213.047V136.224H207.287V152.736H213.047V156H200.567C200.311 156 199.815 155.984 199.079 155.952C198.375 155.888 197.607 155.808 196.775 155.712C195.975 155.584 195.287 155.408 194.711 155.184C194.135 154.96 193.847 154.688 193.847 154.368V138.288C193.847 138 194.055 137.76 194.471 137.568C194.919 137.376 195.463 137.232 196.103 137.136C196.743 137.008 197.383 136.912 198.023 136.848C198.695 136.784 199.271 136.736 199.751 136.704V136.224H190.487ZM246.18 152.736V156H222.66C222.404 156 221.908 155.984 221.172 155.952C220.468 155.888 219.7 155.808 218.868 155.712C218.068 155.584 217.38 155.408 216.804 155.184C216.228 154.96 215.94 154.688 215.94 154.368V133.632C215.94 133.28 216.228 133.008 216.804 132.816C217.38 132.592 218.068 132.432 218.868 132.336C219.7 132.208 220.468 132.128 221.172 132.096C221.908 132.032 222.404 132 222.66 132H239.94C240.196 132 240.676 132.032 241.38 132.096C242.116 132.128 242.884 132.208 243.684 132.336C244.516 132.432 245.22 132.592 245.796 132.816C246.372 133.008 246.66 133.28 246.66 133.632V147.552C246.66 147.872 246.372 148.144 245.796 148.368C245.22 148.592 244.516 148.768 243.684 148.896C242.884 148.992 242.116 149.072 241.38 149.136C240.676 149.168 240.196 149.184 239.94 149.184H236.052C235.732 149.184 235.236 149.168 234.564 149.136C233.892 149.104 233.188 149.04 232.452 148.944C231.716 148.816 231.06 148.656 230.484 148.464C229.908 148.272 229.54 148.032 229.38 147.744V152.736H246.18ZM229.38 145.92H233.22V135.264H229.38V145.92ZM276.621 132V135.264H262.989V142.272H268.557C268.813 142.272 269.261 142.272 269.901 142.272C270.573 142.272 271.325 142.304 272.157 142.368C273.021 142.4 273.837 142.48 274.605 142.608C275.405 142.704 276.061 142.864 276.573 143.088C277.085 143.28 277.341 143.552 277.341 143.904V154.368C277.341 154.688 277.053 154.96 276.477 155.184C275.901 155.408 275.197 155.584 274.365 155.712C273.565 155.808 272.797 155.888 272.061 155.952C271.357 155.984 270.877 156 270.621 156H249.549V152.736H263.901V145.536H258.333C258.077 145.536 257.613 145.536 256.941 145.536C256.301 145.536 255.549 145.52 254.685 145.488C253.853 145.424 253.037 145.344 252.237 145.248C251.469 145.12 250.829 144.944 250.317 144.72C249.805 144.496 249.549 144.224 249.549 143.904V133.632C249.549 133.28 249.837 133.008 250.413 132.816C250.989 132.592 251.677 132.432 252.477 132.336C253.309 132.208 254.077 132.128 254.781 132.096C255.517 132.032 256.013 132 256.269 132H276.621Z" fill="#0088FF"/>
</svg>
